<?xml version="1.0" encoding="UTF-8" standalone="no"?>
<!DOCTYPE svg PUBLIC "-//W3C//DTD SVG 1.1//EN"
 "http://www.w3.org/Graphics/SVG/1.1/DTD/svg11.dtd">
<!-- Generated by graphviz version 2.43.0 (0)
 -->
<!-- Title: G Pages: 1 -->
<svg width="70pt" height="139pt"
 viewBox="0.00 0.00 70.00 139.00" xmlns="http://www.w3.org/2000/svg" xmlns:xlink="http://www.w3.org/1999/xlink">
<g id="graph0" class="graph" transform="scale(1 1) rotate(0) translate(4 135)">
<title>G</title>
<polygon fill="white" stroke="transparent" points="-4,4 -4,-135 66,-135 66,4 -4,4"/>
<!-- 0 -->
<g id="node1" class="node">
<title>0</title>
<ellipse fill="none" stroke="black" cx="31" cy="-109" rx="27" ry="18"/>
<ellipse fill="none" stroke="black" cx="31" cy="-109" rx="31" ry="22"/>
<text text-anchor="middle" x="31" y="-105.3" font-family="Times,serif" font-size="14.00">0</text>
</g>
<!-- 1 -->
<g id="node2" class="node">
<title>1</title>
<ellipse fill="none" stroke="black" cx="31" cy="-18" rx="27" ry="18"/>
<text text-anchor="middle" x="31" y="-14.3" font-family="Times,serif" font-size="14.00">1</text>
</g>
<!-- 0&#45;&gt;1 -->
<g id="edge1" class="edge">
<title>0&#45;&gt;1</title>
<path fill="none" stroke="black" d="M17.72,-88.79C12.26,-78.6 7.87,-65.79 11,-54 11.93,-50.51 13.29,-47.01 14.88,-43.64"/>
<polygon fill="black" stroke="black" points="18.08,-45.07 19.77,-34.62 11.93,-41.74 18.08,-45.07"/>
<text text-anchor="middle" x="20.5" y="-57.8" font-family="Times,serif" font-size="14.00">0&#45;F</text>
</g>
<!-- 1&#45;&gt;0 -->
<g id="edge2" class="edge">
<title>1&#45;&gt;0</title>
<path fill="none" stroke="black" d="M31,-36.07C31,-47.61 31,-63.18 31,-76.89"/>
<polygon fill="black" stroke="black" points="27.5,-76.91 31,-86.91 34.5,-76.91 27.5,-76.91"/>
<text text-anchor="middle" x="40.5" y="-57.8" font-family="Times,serif" font-size="14.00">0&#45;F</text>
</g>
</g>
</svg>
