<?xml version="1.0" encoding="UTF-8" standalone="no"?>
<!DOCTYPE svg PUBLIC "-//W3C//DTD SVG 1.1//EN"
 "http://www.w3.org/Graphics/SVG/1.1/DTD/svg11.dtd">
<!-- Generated by graphviz version 2.43.0 (0)
 -->
<!-- Title: G Pages: 1 -->
<svg width="107pt" height="139pt"
 viewBox="0.00 0.00 107.00 139.00" xmlns="http://www.w3.org/2000/svg" xmlns:xlink="http://www.w3.org/1999/xlink">
<g id="graph0" class="graph" transform="scale(1 1) rotate(0) translate(4 135)">
<title>G</title>
<polygon fill="white" stroke="transparent" points="-4,4 -4,-135 103,-135 103,4 -4,4"/>
<!-- 0 -->
<g id="node1" class="node">
<title>0</title>
<ellipse fill="none" stroke="black" cx="31" cy="-109" rx="27" ry="18"/>
<ellipse fill="none" stroke="black" cx="31" cy="-109" rx="31" ry="22"/>
<text text-anchor="middle" x="31" y="-105.3" font-family="Times,serif" font-size="14.00">0</text>
</g>
<!-- 0&#45;&gt;0 -->
<g id="edge1" class="edge">
<title>0&#45;&gt;0</title>
<path fill="none" stroke="black" d="M59.69,-117.59C70.78,-117.97 80,-115.11 80,-109 80,-104.9 75.84,-102.26 69.74,-101.08"/>
<polygon fill="black" stroke="black" points="69.9,-97.58 59.69,-100.41 69.43,-104.57 69.9,-97.58"/>
<text text-anchor="middle" x="89.5" y="-105.3" font-family="Times,serif" font-size="14.00">1&#45;F</text>
</g>
<!-- 1 -->
<g id="node2" class="node">
<title>1</title>
<ellipse fill="none" stroke="black" cx="31" cy="-18" rx="27" ry="18"/>
<text text-anchor="middle" x="31" y="-14.3" font-family="Times,serif" font-size="14.00">1</text>
</g>
<!-- 0&#45;&gt;1 -->
<g id="edge2" class="edge">
<title>0&#45;&gt;1</title>
<path fill="none" stroke="black" d="M31,-86.91C31,-74.78 31,-59.41 31,-46.36"/>
<polygon fill="black" stroke="black" points="34.5,-46.07 31,-36.07 27.5,-46.07 34.5,-46.07"/>
<text text-anchor="middle" x="34.5" y="-57.8" font-family="Times,serif" font-size="14.00">0</text>
</g>
<!-- 1&#45;&gt;1 -->
<g id="edge3" class="edge">
<title>1&#45;&gt;1</title>
<path fill="none" stroke="black" d="M55.53,-25.75C66.51,-26.49 76,-23.91 76,-18 76,-14.03 71.72,-11.56 65.57,-10.59"/>
<polygon fill="black" stroke="black" points="65.65,-7.09 55.53,-10.25 65.41,-14.09 65.65,-7.09"/>
<text text-anchor="middle" x="85.5" y="-14.3" font-family="Times,serif" font-size="14.00">0&#45;F</text>
</g>
</g>
</svg>
