<?xml version="1.0" encoding="UTF-8" standalone="no"?>
<!DOCTYPE svg PUBLIC "-//W3C//DTD SVG 1.1//EN"
 "http://www.w3.org/Graphics/SVG/1.1/DTD/svg11.dtd">
<!-- Generated by graphviz version 2.43.0 (0)
 -->
<!-- Title: G Pages: 1 -->
<svg width="1988pt" height="234pt"
 viewBox="0.00 0.00 1988.00 234.00" xmlns="http://www.w3.org/2000/svg" xmlns:xlink="http://www.w3.org/1999/xlink">
<g id="graph0" class="graph" transform="scale(1 1) rotate(0) translate(4 230)">
<title>G</title>
<polygon fill="white" stroke="transparent" points="-4,4 -4,-230 1984,-230 1984,4 -4,4"/>
<!-- 0 -->
<g id="node1" class="node">
<title>0</title>
<ellipse fill="none" stroke="black" cx="967" cy="-204" rx="27" ry="18"/>
<ellipse fill="none" stroke="black" cx="967" cy="-204" rx="31" ry="22"/>
<text text-anchor="middle" x="967" y="-200.3" font-family="Times,serif" font-size="14.00">0</text>
</g>
<!-- 2 -->
<g id="node2" class="node">
<title>2</title>
<ellipse fill="none" stroke="black" cx="76" cy="-109" rx="27" ry="18"/>
<ellipse fill="none" stroke="black" cx="76" cy="-109" rx="31" ry="22"/>
<text text-anchor="middle" x="76" y="-105.3" font-family="Times,serif" font-size="14.00">2</text>
</g>
<!-- 0&#45;&gt;2 -->
<g id="edge1" class="edge">
<title>0&#45;&gt;2</title>
<path fill="none" stroke="black" d="M935.86,-201.73C848.99,-198.03 596.65,-186.03 388,-164 285.74,-153.2 259.87,-150.97 159,-131 144.33,-128.1 128.38,-124.23 114.41,-120.61"/>
<polygon fill="black" stroke="black" points="115.2,-117.2 104.64,-118.03 113.42,-123.97 115.2,-117.2"/>
<text text-anchor="middle" x="391.5" y="-152.8" font-family="Times,serif" font-size="14.00">1</text>
</g>
<!-- 5 -->
<g id="node3" class="node">
<title>5</title>
<ellipse fill="none" stroke="black" cx="199" cy="-109" rx="27" ry="18"/>
<ellipse fill="none" stroke="black" cx="199" cy="-109" rx="31" ry="22"/>
<text text-anchor="middle" x="199" y="-105.3" font-family="Times,serif" font-size="14.00">5</text>
</g>
<!-- 0&#45;&gt;5 -->
<g id="edge2" class="edge">
<title>0&#45;&gt;5</title>
<path fill="none" stroke="black" d="M935.99,-201.54C839.41,-196.6 535.78,-178.14 289,-131 272.19,-127.79 253.77,-123.61 238,-119.83"/>
<polygon fill="black" stroke="black" points="238.6,-116.37 228.06,-117.41 236.95,-123.17 238.6,-116.37"/>
<text text-anchor="middle" x="496.5" y="-152.8" font-family="Times,serif" font-size="14.00">2</text>
</g>
<!-- 7 -->
<g id="node4" class="node">
<title>7</title>
<ellipse fill="none" stroke="black" cx="329" cy="-109" rx="27" ry="18"/>
<ellipse fill="none" stroke="black" cx="329" cy="-109" rx="31" ry="22"/>
<text text-anchor="middle" x="329" y="-105.3" font-family="Times,serif" font-size="14.00">7</text>
</g>
<!-- 0&#45;&gt;7 -->
<g id="edge3" class="edge">
<title>0&#45;&gt;7</title>
<path fill="none" stroke="black" d="M936.34,-200.25C852.52,-192.45 612.67,-168.33 416,-131 400.12,-127.99 382.79,-123.96 367.8,-120.23"/>
<polygon fill="black" stroke="black" points="368.4,-116.77 357.85,-117.72 366.68,-123.56 368.4,-116.77"/>
<text text-anchor="middle" x="615.5" y="-152.8" font-family="Times,serif" font-size="14.00">3</text>
</g>
<!-- 9 -->
<g id="node5" class="node">
<title>9</title>
<ellipse fill="none" stroke="black" cx="456" cy="-109" rx="27" ry="18"/>
<ellipse fill="none" stroke="black" cx="456" cy="-109" rx="31" ry="22"/>
<text text-anchor="middle" x="456" y="-105.3" font-family="Times,serif" font-size="14.00">9</text>
</g>
<!-- 0&#45;&gt;9 -->
<g id="edge4" class="edge">
<title>0&#45;&gt;9</title>
<path fill="none" stroke="black" d="M937.07,-197.48C882.34,-187.44 762.4,-165.68 661,-149 608.65,-140.39 595.05,-141.23 543,-131 527.14,-127.88 509.81,-123.83 494.82,-120.12"/>
<polygon fill="black" stroke="black" points="495.41,-116.66 484.86,-117.62 493.71,-123.45 495.41,-116.66"/>
<text text-anchor="middle" x="748.5" y="-152.8" font-family="Times,serif" font-size="14.00">4</text>
</g>
<!-- 11 -->
<g id="node6" class="node">
<title>11</title>
<ellipse fill="none" stroke="black" cx="583" cy="-109" rx="27" ry="18"/>
<ellipse fill="none" stroke="black" cx="583" cy="-109" rx="31" ry="22"/>
<text text-anchor="middle" x="583" y="-105.3" font-family="Times,serif" font-size="14.00">11</text>
</g>
<!-- 0&#45;&gt;11 -->
<g id="edge5" class="edge">
<title>0&#45;&gt;11</title>
<path fill="none" stroke="black" d="M938.69,-194.92C892.18,-181.71 801.52,-156.23 769,-149 723.21,-138.82 710.87,-140.83 665,-131 650.8,-127.96 635.35,-124.14 621.72,-120.59"/>
<polygon fill="black" stroke="black" points="622.27,-117.11 611.71,-117.95 620.49,-123.88 622.27,-117.11"/>
<text text-anchor="middle" x="829.5" y="-152.8" font-family="Times,serif" font-size="14.00">5</text>
</g>
<!-- 13 -->
<g id="node7" class="node">
<title>13</title>
<ellipse fill="none" stroke="black" cx="705" cy="-109" rx="27" ry="18"/>
<ellipse fill="none" stroke="black" cx="705" cy="-109" rx="31" ry="22"/>
<text text-anchor="middle" x="705" y="-105.3" font-family="Times,serif" font-size="14.00">13</text>
</g>
<!-- 0&#45;&gt;13 -->
<g id="edge6" class="edge">
<title>0&#45;&gt;13</title>
<path fill="none" stroke="black" d="M941.7,-191.19C915.98,-179.47 874.78,-161.5 838,-149 808.4,-138.94 800,-139.81 770,-131 760.98,-128.35 751.3,-125.33 742.25,-122.41"/>
<polygon fill="black" stroke="black" points="743.33,-119.08 732.73,-119.32 741.16,-125.74 743.33,-119.08"/>
<text text-anchor="middle" x="880.5" y="-152.8" font-family="Times,serif" font-size="14.00">6</text>
</g>
<!-- 15 -->
<g id="node8" class="node">
<title>15</title>
<ellipse fill="none" stroke="black" cx="810" cy="-109" rx="27" ry="18"/>
<ellipse fill="none" stroke="black" cx="810" cy="-109" rx="31" ry="22"/>
<text text-anchor="middle" x="810" y="-105.3" font-family="Times,serif" font-size="14.00">15</text>
</g>
<!-- 0&#45;&gt;15 -->
<g id="edge7" class="edge">
<title>0&#45;&gt;15</title>
<path fill="none" stroke="black" d="M946.05,-187.53C930.42,-176.27 908.33,-160.96 888,-149 874.11,-140.83 858.29,-132.71 844.54,-126.02"/>
<polygon fill="black" stroke="black" points="845.93,-122.8 835.4,-121.62 842.9,-129.11 845.93,-122.8"/>
<text text-anchor="middle" x="913.5" y="-152.8" font-family="Times,serif" font-size="14.00">7</text>
</g>
<!-- 17 -->
<g id="node9" class="node">
<title>17</title>
<ellipse fill="none" stroke="black" cx="915" cy="-109" rx="27" ry="18"/>
<ellipse fill="none" stroke="black" cx="915" cy="-109" rx="31" ry="22"/>
<text text-anchor="middle" x="915" y="-105.3" font-family="Times,serif" font-size="14.00">17</text>
</g>
<!-- 0&#45;&gt;17 -->
<g id="edge8" class="edge">
<title>0&#45;&gt;17</title>
<path fill="none" stroke="black" d="M955.97,-183.28C948.73,-170.33 939.15,-153.18 931.06,-138.73"/>
<polygon fill="black" stroke="black" points="933.95,-136.71 926.01,-129.69 927.84,-140.13 933.95,-136.71"/>
<text text-anchor="middle" x="947.5" y="-152.8" font-family="Times,serif" font-size="14.00">8</text>
</g>
<!-- 19 -->
<g id="node10" class="node">
<title>19</title>
<ellipse fill="none" stroke="black" cx="1020" cy="-109" rx="27" ry="18"/>
<ellipse fill="none" stroke="black" cx="1020" cy="-109" rx="31" ry="22"/>
<text text-anchor="middle" x="1020" y="-105.3" font-family="Times,serif" font-size="14.00">19</text>
</g>
<!-- 0&#45;&gt;19 -->
<g id="edge9" class="edge">
<title>0&#45;&gt;19</title>
<path fill="none" stroke="black" d="M978.24,-183.28C985.62,-170.33 995.39,-153.18 1003.63,-138.73"/>
<polygon fill="black" stroke="black" points="1006.87,-140.12 1008.78,-129.69 1000.78,-136.65 1006.87,-140.12"/>
<text text-anchor="middle" x="999.5" y="-152.8" font-family="Times,serif" font-size="14.00">9</text>
</g>
<!-- 21 -->
<g id="node11" class="node">
<title>21</title>
<ellipse fill="none" stroke="black" cx="1125" cy="-109" rx="27" ry="18"/>
<ellipse fill="none" stroke="black" cx="1125" cy="-109" rx="31" ry="22"/>
<text text-anchor="middle" x="1125" y="-105.3" font-family="Times,serif" font-size="14.00">21</text>
</g>
<!-- 0&#45;&gt;21 -->
<g id="edge10" class="edge">
<title>0&#45;&gt;21</title>
<path fill="none" stroke="black" d="M990.31,-189.28C1017.39,-173.34 1062.21,-146.96 1092.64,-129.05"/>
<polygon fill="black" stroke="black" points="1094.75,-131.87 1101.59,-123.78 1091.2,-125.84 1094.75,-131.87"/>
<text text-anchor="middle" x="1060" y="-152.8" font-family="Times,serif" font-size="14.00">A</text>
</g>
<!-- 23 -->
<g id="node12" class="node">
<title>23</title>
<ellipse fill="none" stroke="black" cx="1233" cy="-109" rx="27" ry="18"/>
<ellipse fill="none" stroke="black" cx="1233" cy="-109" rx="31" ry="22"/>
<text text-anchor="middle" x="1233" y="-105.3" font-family="Times,serif" font-size="14.00">23</text>
</g>
<!-- 0&#45;&gt;23 -->
<g id="edge11" class="edge">
<title>0&#45;&gt;23</title>
<path fill="none" stroke="black" d="M995.76,-195.58C1039.26,-183.97 1124.04,-159.82 1193,-131 1195.34,-130.02 1197.73,-128.95 1200.12,-127.84"/>
<polygon fill="black" stroke="black" points="1201.79,-130.91 1209.21,-123.36 1198.7,-124.64 1201.79,-130.91"/>
<text text-anchor="middle" x="1149" y="-152.8" font-family="Times,serif" font-size="14.00">B</text>
</g>
<!-- 25 -->
<g id="node13" class="node">
<title>25</title>
<ellipse fill="none" stroke="black" cx="1355" cy="-109" rx="27" ry="18"/>
<ellipse fill="none" stroke="black" cx="1355" cy="-109" rx="31" ry="22"/>
<text text-anchor="middle" x="1355" y="-105.3" font-family="Times,serif" font-size="14.00">25</text>
</g>
<!-- 0&#45;&gt;25 -->
<g id="edge12" class="edge">
<title>0&#45;&gt;25</title>
<path fill="none" stroke="black" d="M997.39,-198.26C1056.62,-188.64 1191.31,-164.79 1301,-131 1307.06,-129.13 1313.4,-126.91 1319.53,-124.63"/>
<polygon fill="black" stroke="black" points="1320.82,-127.88 1328.9,-121.02 1318.31,-121.35 1320.82,-127.88"/>
<text text-anchor="middle" x="1233" y="-152.8" font-family="Times,serif" font-size="14.00">C</text>
</g>
<!-- 27 -->
<g id="node14" class="node">
<title>27</title>
<ellipse fill="none" stroke="black" cx="1500" cy="-109" rx="27" ry="18"/>
<ellipse fill="none" stroke="black" cx="1500" cy="-109" rx="31" ry="22"/>
<text text-anchor="middle" x="1500" y="-105.3" font-family="Times,serif" font-size="14.00">27</text>
</g>
<!-- 0&#45;&gt;27 -->
<g id="edge13" class="edge">
<title>0&#45;&gt;27</title>
<path fill="none" stroke="black" d="M997.41,-199.62C1071.05,-191.13 1264.54,-166.98 1423,-131 1435.67,-128.12 1449.38,-124.54 1461.68,-121.15"/>
<polygon fill="black" stroke="black" points="1462.94,-124.43 1471.62,-118.37 1461.05,-117.69 1462.94,-124.43"/>
<text text-anchor="middle" x="1328" y="-152.8" font-family="Times,serif" font-size="14.00">D</text>
</g>
<!-- 29 -->
<g id="node15" class="node">
<title>29</title>
<ellipse fill="none" stroke="black" cx="1635" cy="-109" rx="27" ry="18"/>
<ellipse fill="none" stroke="black" cx="1635" cy="-109" rx="31" ry="22"/>
<text text-anchor="middle" x="1635" y="-105.3" font-family="Times,serif" font-size="14.00">29</text>
</g>
<!-- 0&#45;&gt;29 -->
<g id="edge14" class="edge">
<title>0&#45;&gt;29</title>
<path fill="none" stroke="black" d="M998.03,-201.55C1087.5,-196.89 1353.29,-179.65 1568,-131 1577.79,-128.78 1588.22,-125.82 1597.86,-122.81"/>
<polygon fill="black" stroke="black" points="1599.11,-126.09 1607.57,-119.7 1596.98,-119.42 1599.11,-126.09"/>
<text text-anchor="middle" x="1474.5" y="-152.8" font-family="Times,serif" font-size="14.00">E</text>
</g>
<!-- 31 -->
<g id="node16" class="node">
<title>31</title>
<ellipse fill="none" stroke="black" cx="1763" cy="-109" rx="27" ry="18"/>
<ellipse fill="none" stroke="black" cx="1763" cy="-109" rx="31" ry="22"/>
<text text-anchor="middle" x="1763" y="-105.3" font-family="Times,serif" font-size="14.00">31</text>
</g>
<!-- 0&#45;&gt;31 -->
<g id="edge15" class="edge">
<title>0&#45;&gt;31</title>
<path fill="none" stroke="black" d="M997.9,-201.47C1078.12,-197.31 1299.55,-184.73 1483,-164 1580.81,-152.95 1606.4,-154.45 1702,-131 1710.12,-129.01 1718.69,-126.39 1726.76,-123.69"/>
<polygon fill="black" stroke="black" points="1727.99,-126.96 1736.29,-120.38 1725.69,-120.35 1727.99,-126.96"/>
<text text-anchor="middle" x="1615" y="-152.8" font-family="Times,serif" font-size="14.00">F</text>
</g>
<!-- 32 -->
<g id="node17" class="node">
<title>32</title>
<ellipse fill="none" stroke="black" cx="1874" cy="-109" rx="27" ry="18"/>
<ellipse fill="none" stroke="black" cx="1874" cy="-109" rx="31" ry="22"/>
<text text-anchor="middle" x="1874" y="-105.3" font-family="Times,serif" font-size="14.00">32</text>
</g>
<!-- 0&#45;&gt;32 -->
<g id="edge16" class="edge">
<title>0&#45;&gt;32</title>
<path fill="none" stroke="black" d="M998.17,-202.25C1092.54,-199.73 1383.42,-190.25 1623,-164 1715.17,-153.9 1740.36,-158.2 1829,-131 1832.79,-129.84 1836.66,-128.42 1840.47,-126.87"/>
<polygon fill="black" stroke="black" points="1841.97,-130.03 1849.73,-122.82 1839.17,-123.62 1841.97,-130.03"/>
<text text-anchor="middle" x="1758.5" y="-152.8" font-family="Times,serif" font-size="14.00">0</text>
</g>
<!-- 2&#45;&gt;2 -->
<g id="edge19" class="edge">
<title>2&#45;&gt;2</title>
<path fill="none" stroke="black" d="M104.69,-117.59C115.78,-117.97 125,-115.11 125,-109 125,-104.9 120.84,-102.26 114.74,-101.08"/>
<polygon fill="black" stroke="black" points="114.9,-97.58 104.69,-100.41 114.43,-104.57 114.9,-97.58"/>
<text text-anchor="middle" x="128.5" y="-105.3" font-family="Times,serif" font-size="14.00">1</text>
</g>
<!-- 4 -->
<g id="node19" class="node">
<title>4</title>
<ellipse fill="none" stroke="black" cx="27" cy="-18" rx="27" ry="18"/>
<text text-anchor="middle" x="27" y="-14.3" font-family="Times,serif" font-size="14.00">4</text>
</g>
<!-- 2&#45;&gt;4 -->
<g id="edge20" class="edge">
<title>2&#45;&gt;4</title>
<path fill="none" stroke="black" d="M52.03,-94.77C42.77,-88.31 33.18,-79.61 28,-69 24.6,-62.03 23.45,-53.83 23.39,-46.11"/>
<polygon fill="black" stroke="black" points="26.89,-46.2 23.89,-36.04 19.9,-45.86 26.89,-46.2"/>
<text text-anchor="middle" x="41" y="-57.8" font-family="Times,serif" font-size="14.00">02&#45;F</text>
</g>
<!-- 5&#45;&gt;5 -->
<g id="edge25" class="edge">
<title>5&#45;&gt;5</title>
<path fill="none" stroke="black" d="M227.69,-117.59C238.78,-117.97 248,-115.11 248,-109 248,-104.9 243.84,-102.26 237.74,-101.08"/>
<polygon fill="black" stroke="black" points="237.9,-97.58 227.69,-100.41 237.43,-104.57 237.9,-97.58"/>
<text text-anchor="middle" x="251.5" y="-105.3" font-family="Times,serif" font-size="14.00">2</text>
</g>
<!-- 6 -->
<g id="node21" class="node">
<title>6</title>
<ellipse fill="none" stroke="black" cx="143" cy="-18" rx="27" ry="18"/>
<text text-anchor="middle" x="143" y="-14.3" font-family="Times,serif" font-size="14.00">6</text>
</g>
<!-- 5&#45;&gt;6 -->
<g id="edge26" class="edge">
<title>5&#45;&gt;6</title>
<path fill="none" stroke="black" d="M173.35,-96.53C162.24,-90.13 150.35,-81 144,-69 140.37,-62.14 139.15,-53.98 139.1,-46.26"/>
<polygon fill="black" stroke="black" points="142.6,-46.34 139.65,-36.16 135.61,-45.96 142.6,-46.34"/>
<text text-anchor="middle" x="160.5" y="-57.8" font-family="Times,serif" font-size="14.00">013&#45;F</text>
</g>
<!-- 7&#45;&gt;7 -->
<g id="edge29" class="edge">
<title>7&#45;&gt;7</title>
<path fill="none" stroke="black" d="M357.69,-117.59C368.78,-117.97 378,-115.11 378,-109 378,-104.9 373.84,-102.26 367.74,-101.08"/>
<polygon fill="black" stroke="black" points="367.9,-97.58 357.69,-100.41 367.43,-104.57 367.9,-97.58"/>
<text text-anchor="middle" x="381.5" y="-105.3" font-family="Times,serif" font-size="14.00">3</text>
</g>
<!-- 8 -->
<g id="node22" class="node">
<title>8</title>
<ellipse fill="none" stroke="black" cx="266" cy="-18" rx="27" ry="18"/>
<text text-anchor="middle" x="266" y="-14.3" font-family="Times,serif" font-size="14.00">8</text>
</g>
<!-- 7&#45;&gt;8 -->
<g id="edge30" class="edge">
<title>7&#45;&gt;8</title>
<path fill="none" stroke="black" d="M301.78,-98.08C288.84,-91.84 274.57,-82.39 267,-69 263.18,-62.25 261.91,-54.11 261.86,-46.39"/>
<polygon fill="black" stroke="black" points="265.37,-46.46 262.45,-36.27 258.38,-46.05 265.37,-46.46"/>
<text text-anchor="middle" x="287" y="-57.8" font-family="Times,serif" font-size="14.00">0124&#45;F</text>
</g>
<!-- 9&#45;&gt;9 -->
<g id="edge33" class="edge">
<title>9&#45;&gt;9</title>
<path fill="none" stroke="black" d="M484.69,-117.59C495.78,-117.97 505,-115.11 505,-109 505,-104.9 500.84,-102.26 494.74,-101.08"/>
<polygon fill="black" stroke="black" points="494.9,-97.58 484.69,-100.41 494.43,-104.57 494.9,-97.58"/>
<text text-anchor="middle" x="508.5" y="-105.3" font-family="Times,serif" font-size="14.00">4</text>
</g>
<!-- 10 -->
<g id="node23" class="node">
<title>10</title>
<ellipse fill="none" stroke="black" cx="396" cy="-18" rx="27" ry="18"/>
<text text-anchor="middle" x="396" y="-14.3" font-family="Times,serif" font-size="14.00">10</text>
</g>
<!-- 9&#45;&gt;10 -->
<g id="edge34" class="edge">
<title>9&#45;&gt;10</title>
<path fill="none" stroke="black" d="M429.45,-97.44C417.29,-91.13 404.05,-81.8 397,-69 393.26,-62.2 392.01,-54.06 391.96,-46.33"/>
<polygon fill="black" stroke="black" points="395.46,-46.41 392.53,-36.23 388.47,-46.02 395.46,-46.41"/>
<text text-anchor="middle" x="415.5" y="-57.8" font-family="Times,serif" font-size="14.00">0&#45;35&#45;F</text>
</g>
<!-- 11&#45;&gt;11 -->
<g id="edge37" class="edge">
<title>11&#45;&gt;11</title>
<path fill="none" stroke="black" d="M611.69,-117.59C622.78,-117.97 632,-115.11 632,-109 632,-104.9 627.84,-102.26 621.74,-101.08"/>
<polygon fill="black" stroke="black" points="621.9,-97.58 611.69,-100.41 621.43,-104.57 621.9,-97.58"/>
<text text-anchor="middle" x="635.5" y="-105.3" font-family="Times,serif" font-size="14.00">5</text>
</g>
<!-- 12 -->
<g id="node24" class="node">
<title>12</title>
<ellipse fill="none" stroke="black" cx="523" cy="-18" rx="27" ry="18"/>
<text text-anchor="middle" x="523" y="-14.3" font-family="Times,serif" font-size="14.00">12</text>
</g>
<!-- 11&#45;&gt;12 -->
<g id="edge38" class="edge">
<title>11&#45;&gt;12</title>
<path fill="none" stroke="black" d="M556.45,-97.44C544.29,-91.13 531.05,-81.8 524,-69 520.26,-62.2 519.01,-54.06 518.96,-46.33"/>
<polygon fill="black" stroke="black" points="522.46,-46.41 519.53,-36.23 515.47,-46.02 522.46,-46.41"/>
<text text-anchor="middle" x="542.5" y="-57.8" font-family="Times,serif" font-size="14.00">0&#45;46&#45;F</text>
</g>
<!-- 13&#45;&gt;13 -->
<g id="edge41" class="edge">
<title>13&#45;&gt;13</title>
<path fill="none" stroke="black" d="M733.69,-117.59C744.78,-117.97 754,-115.11 754,-109 754,-104.9 749.84,-102.26 743.74,-101.08"/>
<polygon fill="black" stroke="black" points="743.9,-97.58 733.69,-100.41 743.43,-104.57 743.9,-97.58"/>
<text text-anchor="middle" x="757.5" y="-105.3" font-family="Times,serif" font-size="14.00">6</text>
</g>
<!-- 14 -->
<g id="node25" class="node">
<title>14</title>
<ellipse fill="none" stroke="black" cx="650" cy="-18" rx="27" ry="18"/>
<text text-anchor="middle" x="650" y="-14.3" font-family="Times,serif" font-size="14.00">14</text>
</g>
<!-- 13&#45;&gt;14 -->
<g id="edge42" class="edge">
<title>13&#45;&gt;14</title>
<path fill="none" stroke="black" d="M678.62,-96.97C667.01,-90.62 654.55,-81.41 648,-69 644.38,-62.13 643.53,-53.97 643.96,-46.24"/>
<polygon fill="black" stroke="black" points="647.45,-46.51 645.19,-36.15 640.5,-45.65 647.45,-46.51"/>
<text text-anchor="middle" x="666.5" y="-57.8" font-family="Times,serif" font-size="14.00">0&#45;57&#45;F</text>
</g>
<!-- 15&#45;&gt;15 -->
<g id="edge45" class="edge">
<title>15&#45;&gt;15</title>
<path fill="none" stroke="black" d="M838.69,-117.59C849.78,-117.97 859,-115.11 859,-109 859,-104.9 854.84,-102.26 848.74,-101.08"/>
<polygon fill="black" stroke="black" points="848.9,-97.58 838.69,-100.41 848.43,-104.57 848.9,-97.58"/>
<text text-anchor="middle" x="862.5" y="-105.3" font-family="Times,serif" font-size="14.00">7</text>
</g>
<!-- 16 -->
<g id="node26" class="node">
<title>16</title>
<ellipse fill="none" stroke="black" cx="777" cy="-18" rx="27" ry="18"/>
<text text-anchor="middle" x="777" y="-14.3" font-family="Times,serif" font-size="14.00">16</text>
</g>
<!-- 15&#45;&gt;16 -->
<g id="edge46" class="edge">
<title>15&#45;&gt;16</title>
<path fill="none" stroke="black" d="M786.42,-94.25C777.68,-87.8 768.75,-79.26 764,-69 760.5,-61.45 761.25,-52.8 763.62,-44.84"/>
<polygon fill="black" stroke="black" points="766.98,-45.86 767.3,-35.27 760.45,-43.35 766.98,-45.86"/>
<text text-anchor="middle" x="782.5" y="-57.8" font-family="Times,serif" font-size="14.00">0&#45;68&#45;F</text>
</g>
<!-- 17&#45;&gt;17 -->
<g id="edge49" class="edge">
<title>17&#45;&gt;17</title>
<path fill="none" stroke="black" d="M943.69,-117.59C954.78,-117.97 964,-115.11 964,-109 964,-104.9 959.84,-102.26 953.74,-101.08"/>
<polygon fill="black" stroke="black" points="953.9,-97.58 943.69,-100.41 953.43,-104.57 953.9,-97.58"/>
<text text-anchor="middle" x="967.5" y="-105.3" font-family="Times,serif" font-size="14.00">8</text>
</g>
<!-- 18 -->
<g id="node27" class="node">
<title>18</title>
<ellipse fill="none" stroke="black" cx="904" cy="-18" rx="27" ry="18"/>
<text text-anchor="middle" x="904" y="-14.3" font-family="Times,serif" font-size="14.00">18</text>
</g>
<!-- 17&#45;&gt;18 -->
<g id="edge50" class="edge">
<title>17&#45;&gt;18</title>
<path fill="none" stroke="black" d="M898.73,-90.27C894,-84.01 889.45,-76.62 887,-69 884.36,-60.81 885.95,-51.9 889.01,-43.91"/>
<polygon fill="black" stroke="black" points="892.24,-45.26 893.29,-34.72 885.89,-42.31 892.24,-45.26"/>
<text text-anchor="middle" x="905.5" y="-57.8" font-family="Times,serif" font-size="14.00">0&#45;79&#45;F</text>
</g>
<!-- 19&#45;&gt;19 -->
<g id="edge53" class="edge">
<title>19&#45;&gt;19</title>
<path fill="none" stroke="black" d="M1048.69,-117.59C1059.78,-117.97 1069,-115.11 1069,-109 1069,-104.9 1064.84,-102.26 1058.74,-101.08"/>
<polygon fill="black" stroke="black" points="1058.9,-97.58 1048.69,-100.41 1058.43,-104.57 1058.9,-97.58"/>
<text text-anchor="middle" x="1072.5" y="-105.3" font-family="Times,serif" font-size="14.00">9</text>
</g>
<!-- 20 -->
<g id="node28" class="node">
<title>20</title>
<ellipse fill="none" stroke="black" cx="1031" cy="-18" rx="27" ry="18"/>
<text text-anchor="middle" x="1031" y="-14.3" font-family="Times,serif" font-size="14.00">20</text>
</g>
<!-- 19&#45;&gt;20 -->
<g id="edge54" class="edge">
<title>19&#45;&gt;20</title>
<path fill="none" stroke="black" d="M1000.97,-91.36C991.38,-80.88 982.95,-66.92 989,-54 992.08,-47.42 997.08,-41.64 1002.57,-36.78"/>
<polygon fill="black" stroke="black" points="1005.1,-39.24 1010.8,-30.31 1000.78,-33.74 1005.1,-39.24"/>
<text text-anchor="middle" x="1009" y="-57.8" font-family="Times,serif" font-size="14.00">0&#45;8A&#45;F</text>
</g>
<!-- 21&#45;&gt;21 -->
<g id="edge57" class="edge">
<title>21&#45;&gt;21</title>
<path fill="none" stroke="black" d="M1153.69,-117.59C1164.78,-117.97 1174,-115.11 1174,-109 1174,-104.9 1169.84,-102.26 1163.74,-101.08"/>
<polygon fill="black" stroke="black" points="1163.9,-97.58 1153.69,-100.41 1163.43,-104.57 1163.9,-97.58"/>
<text text-anchor="middle" x="1179" y="-105.3" font-family="Times,serif" font-size="14.00">A</text>
</g>
<!-- 22 -->
<g id="node29" class="node">
<title>22</title>
<ellipse fill="none" stroke="black" cx="1161" cy="-18" rx="27" ry="18"/>
<text text-anchor="middle" x="1161" y="-14.3" font-family="Times,serif" font-size="14.00">22</text>
</g>
<!-- 21&#45;&gt;22 -->
<g id="edge58" class="edge">
<title>21&#45;&gt;22</title>
<path fill="none" stroke="black" d="M1114.41,-88.2C1110.25,-77.62 1107.6,-64.62 1113,-54 1117,-46.14 1123.68,-39.62 1130.81,-34.43"/>
<polygon fill="black" stroke="black" points="1132.78,-37.33 1139.25,-28.94 1128.96,-31.46 1132.78,-37.33"/>
<text text-anchor="middle" x="1133" y="-57.8" font-family="Times,serif" font-size="14.00">0&#45;9B&#45;F</text>
</g>
<!-- 23&#45;&gt;23 -->
<g id="edge61" class="edge">
<title>23&#45;&gt;23</title>
<path fill="none" stroke="black" d="M1261.69,-117.59C1272.78,-117.97 1282,-115.11 1282,-109 1282,-104.9 1277.84,-102.26 1271.74,-101.08"/>
<polygon fill="black" stroke="black" points="1271.9,-97.58 1261.69,-100.41 1271.43,-104.57 1271.9,-97.58"/>
<text text-anchor="middle" x="1287" y="-105.3" font-family="Times,serif" font-size="14.00">B</text>
</g>
<!-- 24 -->
<g id="node30" class="node">
<title>24</title>
<ellipse fill="none" stroke="black" cx="1291" cy="-18" rx="27" ry="18"/>
<text text-anchor="middle" x="1291" y="-14.3" font-family="Times,serif" font-size="14.00">24</text>
</g>
<!-- 23&#45;&gt;24 -->
<g id="edge62" class="edge">
<title>23&#45;&gt;24</title>
<path fill="none" stroke="black" d="M1225.6,-87.5C1223.05,-76.84 1222.13,-63.98 1228,-54 1230.01,-50.58 1245.46,-41.98 1260.56,-34.15"/>
<polygon fill="black" stroke="black" points="1262.48,-37.1 1269.79,-29.44 1259.29,-30.87 1262.48,-37.1"/>
<text text-anchor="middle" x="1249.5" y="-57.8" font-family="Times,serif" font-size="14.00">0&#45;AC&#45;F</text>
</g>
<!-- 25&#45;&gt;25 -->
<g id="edge65" class="edge">
<title>25&#45;&gt;25</title>
<path fill="none" stroke="black" d="M1383.69,-117.59C1394.78,-117.97 1404,-115.11 1404,-109 1404,-104.9 1399.84,-102.26 1393.74,-101.08"/>
<polygon fill="black" stroke="black" points="1393.9,-97.58 1383.69,-100.41 1393.43,-104.57 1393.9,-97.58"/>
<text text-anchor="middle" x="1409" y="-105.3" font-family="Times,serif" font-size="14.00">C</text>
</g>
<!-- 26 -->
<g id="node31" class="node">
<title>26</title>
<ellipse fill="none" stroke="black" cx="1424" cy="-18" rx="27" ry="18"/>
<text text-anchor="middle" x="1424" y="-14.3" font-family="Times,serif" font-size="14.00">26</text>
</g>
<!-- 25&#45;&gt;26 -->
<g id="edge66" class="edge">
<title>25&#45;&gt;26</title>
<path fill="none" stroke="black" d="M1350.56,-87.08C1349.44,-76.43 1349.95,-63.71 1356,-54 1357.19,-52.09 1376.14,-42.41 1393.74,-33.71"/>
<polygon fill="black" stroke="black" points="1395.28,-36.85 1402.71,-29.3 1392.19,-30.57 1395.28,-36.85"/>
<text text-anchor="middle" x="1379" y="-57.8" font-family="Times,serif" font-size="14.00">0&#45;BDEF</text>
</g>
<!-- 27&#45;&gt;27 -->
<g id="edge69" class="edge">
<title>27&#45;&gt;27</title>
<path fill="none" stroke="black" d="M1528.69,-117.59C1539.78,-117.97 1549,-115.11 1549,-109 1549,-104.9 1544.84,-102.26 1538.74,-101.08"/>
<polygon fill="black" stroke="black" points="1538.9,-97.58 1528.69,-100.41 1538.43,-104.57 1538.9,-97.58"/>
<text text-anchor="middle" x="1554" y="-105.3" font-family="Times,serif" font-size="14.00">D</text>
</g>
<!-- 28 -->
<g id="node32" class="node">
<title>28</title>
<ellipse fill="none" stroke="black" cx="1560" cy="-18" rx="27" ry="18"/>
<text text-anchor="middle" x="1560" y="-14.3" font-family="Times,serif" font-size="14.00">28</text>
</g>
<!-- 27&#45;&gt;28 -->
<g id="edge70" class="edge">
<title>27&#45;&gt;28</title>
<path fill="none" stroke="black" d="M1495.78,-86.97C1494.76,-76.41 1495.29,-63.81 1501,-54 1504.47,-48.04 1516.89,-40.3 1529.44,-33.62"/>
<polygon fill="black" stroke="black" points="1531.18,-36.66 1538.48,-28.98 1527.98,-30.43 1531.18,-36.66"/>
<text text-anchor="middle" x="1519.5" y="-57.8" font-family="Times,serif" font-size="14.00">0&#45;CEF</text>
</g>
<!-- 29&#45;&gt;29 -->
<g id="edge73" class="edge">
<title>29&#45;&gt;29</title>
<path fill="none" stroke="black" d="M1663.69,-117.59C1674.78,-117.97 1684,-115.11 1684,-109 1684,-104.9 1679.84,-102.26 1673.74,-101.08"/>
<polygon fill="black" stroke="black" points="1673.9,-97.58 1663.69,-100.41 1673.43,-104.57 1673.9,-97.58"/>
<text text-anchor="middle" x="1688.5" y="-105.3" font-family="Times,serif" font-size="14.00">E</text>
</g>
<!-- 30 -->
<g id="node33" class="node">
<title>30</title>
<ellipse fill="none" stroke="black" cx="1687" cy="-18" rx="27" ry="18"/>
<text text-anchor="middle" x="1687" y="-14.3" font-family="Times,serif" font-size="14.00">30</text>
</g>
<!-- 29&#45;&gt;30 -->
<g id="edge74" class="edge">
<title>29&#45;&gt;30</title>
<path fill="none" stroke="black" d="M1631.05,-87.12C1630.1,-76.6 1630.62,-63.99 1636,-54 1640.52,-45.6 1648.05,-38.81 1655.95,-33.53"/>
<polygon fill="black" stroke="black" points="1657.77,-36.53 1664.55,-28.39 1654.17,-30.52 1657.77,-36.53"/>
<text text-anchor="middle" x="1650.5" y="-57.8" font-family="Times,serif" font-size="14.00">0&#45;DF</text>
</g>
<!-- 31&#45;&gt;31 -->
<g id="edge78" class="edge">
<title>31&#45;&gt;31</title>
<path fill="none" stroke="black" d="M1791.69,-117.59C1802.78,-117.97 1812,-115.11 1812,-109 1812,-104.9 1807.84,-102.26 1801.74,-101.08"/>
<polygon fill="black" stroke="black" points="1801.9,-97.58 1791.69,-100.41 1801.43,-104.57 1801.9,-97.58"/>
<text text-anchor="middle" x="1816" y="-105.3" font-family="Times,serif" font-size="14.00">F</text>
</g>
<!-- 1 -->
<g id="node18" class="node">
<title>1</title>
<ellipse fill="none" stroke="black" cx="1806" cy="-18" rx="27" ry="18"/>
<text text-anchor="middle" x="1806" y="-14.3" font-family="Times,serif" font-size="14.00">1</text>
</g>
<!-- 31&#45;&gt;1 -->
<g id="edge77" class="edge">
<title>31&#45;&gt;1</title>
<path fill="none" stroke="black" d="M1757.17,-87.28C1755.35,-76.8 1754.95,-64.18 1760,-54 1763.7,-46.54 1769.83,-40.24 1776.43,-35.13"/>
<polygon fill="black" stroke="black" points="1778.65,-37.85 1784.89,-29.3 1774.67,-32.09 1778.65,-37.85"/>
<text text-anchor="middle" x="1770" y="-57.8" font-family="Times,serif" font-size="14.00">0&#45;E</text>
</g>
<!-- 32&#45;&gt;32 -->
<g id="edge80" class="edge">
<title>32&#45;&gt;32</title>
<path fill="none" stroke="black" d="M1902.69,-117.59C1913.78,-117.97 1923,-115.11 1923,-109 1923,-104.9 1918.84,-102.26 1912.74,-101.08"/>
<polygon fill="black" stroke="black" points="1912.9,-97.58 1902.69,-100.41 1912.43,-104.57 1912.9,-97.58"/>
<text text-anchor="middle" x="1926.5" y="-105.3" font-family="Times,serif" font-size="14.00">0</text>
</g>
<!-- 3 -->
<g id="node20" class="node">
<title>3</title>
<ellipse fill="none" stroke="black" cx="1916" cy="-18" rx="27" ry="18"/>
<text text-anchor="middle" x="1916" y="-14.3" font-family="Times,serif" font-size="14.00">3</text>
</g>
<!-- 32&#45;&gt;3 -->
<g id="edge79" class="edge">
<title>32&#45;&gt;3</title>
<path fill="none" stroke="black" d="M1868.21,-87.3C1866.41,-76.83 1866.01,-64.21 1871,-54 1874.47,-46.91 1880.14,-40.84 1886.31,-35.84"/>
<polygon fill="black" stroke="black" points="1888.79,-38.37 1894.87,-29.7 1884.71,-32.69 1888.79,-38.37"/>
<text text-anchor="middle" x="1880.5" y="-57.8" font-family="Times,serif" font-size="14.00">1&#45;F</text>
</g>
<!-- 1&#45;&gt;31 -->
<g id="edge18" class="edge">
<title>1&#45;&gt;31</title>
<path fill="none" stroke="black" d="M1798.99,-35.82C1794.83,-45.59 1789.33,-58.09 1784,-69 1782.35,-72.38 1780.57,-75.89 1778.76,-79.35"/>
<polygon fill="black" stroke="black" points="1775.6,-77.85 1773.99,-88.32 1781.78,-81.13 1775.6,-77.85"/>
<text text-anchor="middle" x="1795" y="-57.8" font-family="Times,serif" font-size="14.00">F</text>
</g>
<!-- 1&#45;&gt;1 -->
<g id="edge17" class="edge">
<title>1&#45;&gt;1</title>
<path fill="none" stroke="black" d="M1830.53,-25.75C1841.51,-26.49 1851,-23.91 1851,-18 1851,-14.03 1846.72,-11.56 1840.57,-10.59"/>
<polygon fill="black" stroke="black" points="1840.65,-7.09 1830.53,-10.25 1840.41,-14.09 1840.65,-7.09"/>
<text text-anchor="middle" x="1861" y="-14.3" font-family="Times,serif" font-size="14.00">0&#45;E</text>
</g>
<!-- 4&#45;&gt;2 -->
<g id="edge23" class="edge">
<title>4&#45;&gt;2</title>
<path fill="none" stroke="black" d="M40.04,-34.05C44.82,-40.01 50.02,-47.08 54,-54 58.31,-61.49 62.19,-69.98 65.44,-77.98"/>
<polygon fill="black" stroke="black" points="62.22,-79.33 69.1,-87.39 68.74,-76.8 62.22,-79.33"/>
<text text-anchor="middle" x="65.5" y="-57.8" font-family="Times,serif" font-size="14.00">1</text>
</g>
<!-- 4&#45;&gt;4 -->
<g id="edge24" class="edge">
<title>4&#45;&gt;4</title>
<path fill="none" stroke="black" d="M51.53,-25.75C62.51,-26.49 72,-23.91 72,-18 72,-14.03 67.72,-11.56 61.57,-10.59"/>
<polygon fill="black" stroke="black" points="61.65,-7.09 51.53,-10.25 61.41,-14.09 61.65,-7.09"/>
<text text-anchor="middle" x="85" y="-14.3" font-family="Times,serif" font-size="14.00">02&#45;F</text>
</g>
<!-- 3&#45;&gt;32 -->
<g id="edge22" class="edge">
<title>3&#45;&gt;32</title>
<path fill="none" stroke="black" d="M1908.91,-35.78C1904.72,-45.54 1899.22,-58.04 1894,-69 1892.4,-72.36 1890.68,-75.86 1888.95,-79.32"/>
<polygon fill="black" stroke="black" points="1885.81,-77.77 1884.4,-88.27 1892.05,-80.94 1885.81,-77.77"/>
<text text-anchor="middle" x="1903.5" y="-57.8" font-family="Times,serif" font-size="14.00">0</text>
</g>
<!-- 3&#45;&gt;3 -->
<g id="edge21" class="edge">
<title>3&#45;&gt;3</title>
<path fill="none" stroke="black" d="M1940.53,-25.75C1951.51,-26.49 1961,-23.91 1961,-18 1961,-14.03 1956.72,-11.56 1950.57,-10.59"/>
<polygon fill="black" stroke="black" points="1950.65,-7.09 1940.53,-10.25 1950.41,-14.09 1950.65,-7.09"/>
<text text-anchor="middle" x="1970.5" y="-14.3" font-family="Times,serif" font-size="14.00">1&#45;F</text>
</g>
<!-- 6&#45;&gt;5 -->
<g id="edge27" class="edge">
<title>6&#45;&gt;5</title>
<path fill="none" stroke="black" d="M158.93,-32.89C165.16,-38.92 171.99,-46.34 177,-54 181.76,-61.29 185.81,-69.78 189.08,-77.84"/>
<polygon fill="black" stroke="black" points="185.87,-79.23 192.69,-87.34 192.42,-76.75 185.87,-79.23"/>
<text text-anchor="middle" x="188.5" y="-57.8" font-family="Times,serif" font-size="14.00">2</text>
</g>
<!-- 6&#45;&gt;6 -->
<g id="edge28" class="edge">
<title>6&#45;&gt;6</title>
<path fill="none" stroke="black" d="M167.53,-25.75C178.51,-26.49 188,-23.91 188,-18 188,-14.03 183.72,-11.56 177.57,-10.59"/>
<polygon fill="black" stroke="black" points="177.65,-7.09 167.53,-10.25 177.41,-14.09 177.65,-7.09"/>
<text text-anchor="middle" x="204.5" y="-14.3" font-family="Times,serif" font-size="14.00">013&#45;F</text>
</g>
<!-- 8&#45;&gt;7 -->
<g id="edge31" class="edge">
<title>8&#45;&gt;7</title>
<path fill="none" stroke="black" d="M284.08,-31.38C291.94,-37.46 300.75,-45.35 307,-54 312.14,-61.12 316.32,-69.61 319.61,-77.73"/>
<polygon fill="black" stroke="black" points="316.41,-79.17 323.17,-87.33 322.97,-76.74 316.41,-79.17"/>
<text text-anchor="middle" x="319.5" y="-57.8" font-family="Times,serif" font-size="14.00">3</text>
</g>
<!-- 8&#45;&gt;8 -->
<g id="edge32" class="edge">
<title>8&#45;&gt;8</title>
<path fill="none" stroke="black" d="M290.53,-25.75C301.51,-26.49 311,-23.91 311,-18 311,-14.03 306.72,-11.56 300.57,-10.59"/>
<polygon fill="black" stroke="black" points="300.65,-7.09 290.53,-10.25 300.41,-14.09 300.65,-7.09"/>
<text text-anchor="middle" x="331" y="-14.3" font-family="Times,serif" font-size="14.00">0124&#45;F</text>
</g>
<!-- 10&#45;&gt;9 -->
<g id="edge35" class="edge">
<title>10&#45;&gt;9</title>
<path fill="none" stroke="black" d="M413.11,-31.93C420.28,-38.02 428.27,-45.75 434,-54 438.96,-61.15 443.08,-69.6 446.35,-77.66"/>
<polygon fill="black" stroke="black" points="443.13,-79.05 449.92,-87.18 449.69,-76.59 443.13,-79.05"/>
<text text-anchor="middle" x="445.5" y="-57.8" font-family="Times,serif" font-size="14.00">4</text>
</g>
<!-- 10&#45;&gt;10 -->
<g id="edge36" class="edge">
<title>10&#45;&gt;10</title>
<path fill="none" stroke="black" d="M420.53,-25.75C431.51,-26.49 441,-23.91 441,-18 441,-14.03 436.72,-11.56 430.57,-10.59"/>
<polygon fill="black" stroke="black" points="430.65,-7.09 420.53,-10.25 430.41,-14.09 430.65,-7.09"/>
<text text-anchor="middle" x="459.5" y="-14.3" font-family="Times,serif" font-size="14.00">0&#45;35&#45;F</text>
</g>
<!-- 12&#45;&gt;11 -->
<g id="edge39" class="edge">
<title>12&#45;&gt;11</title>
<path fill="none" stroke="black" d="M540.11,-31.93C547.28,-38.02 555.27,-45.75 561,-54 565.96,-61.15 570.08,-69.6 573.35,-77.66"/>
<polygon fill="black" stroke="black" points="570.13,-79.05 576.92,-87.18 576.69,-76.59 570.13,-79.05"/>
<text text-anchor="middle" x="571.5" y="-57.8" font-family="Times,serif" font-size="14.00">5</text>
</g>
<!-- 12&#45;&gt;12 -->
<g id="edge40" class="edge">
<title>12&#45;&gt;12</title>
<path fill="none" stroke="black" d="M547.53,-25.75C558.51,-26.49 568,-23.91 568,-18 568,-14.03 563.72,-11.56 557.57,-10.59"/>
<polygon fill="black" stroke="black" points="557.65,-7.09 547.53,-10.25 557.41,-14.09 557.65,-7.09"/>
<text text-anchor="middle" x="586.5" y="-14.3" font-family="Times,serif" font-size="14.00">0&#45;46&#45;F</text>
</g>
<!-- 14&#45;&gt;13 -->
<g id="edge43" class="edge">
<title>14&#45;&gt;13</title>
<path fill="none" stroke="black" d="M666.55,-32.73C672.98,-38.74 679.99,-46.19 685,-54 689.64,-61.24 693.42,-69.71 696.4,-77.77"/>
<polygon fill="black" stroke="black" points="693.1,-78.94 699.63,-87.28 699.72,-76.69 693.1,-78.94"/>
<text text-anchor="middle" x="695.5" y="-57.8" font-family="Times,serif" font-size="14.00">6</text>
</g>
<!-- 14&#45;&gt;14 -->
<g id="edge44" class="edge">
<title>14&#45;&gt;14</title>
<path fill="none" stroke="black" d="M674.53,-25.75C685.51,-26.49 695,-23.91 695,-18 695,-14.03 690.72,-11.56 684.57,-10.59"/>
<polygon fill="black" stroke="black" points="684.65,-7.09 674.53,-10.25 684.41,-14.09 684.65,-7.09"/>
<text text-anchor="middle" x="713.5" y="-14.3" font-family="Times,serif" font-size="14.00">0&#45;57&#45;F</text>
</g>
<!-- 16&#45;&gt;15 -->
<g id="edge47" class="edge">
<title>16&#45;&gt;15</title>
<path fill="none" stroke="black" d="M789.56,-34.19C793.81,-40.06 798.19,-47.03 801,-54 803.88,-61.15 805.84,-69.19 807.17,-76.84"/>
<polygon fill="black" stroke="black" points="803.73,-77.51 808.63,-86.91 810.66,-76.51 803.73,-77.51"/>
<text text-anchor="middle" x="808.5" y="-57.8" font-family="Times,serif" font-size="14.00">7</text>
</g>
<!-- 16&#45;&gt;16 -->
<g id="edge48" class="edge">
<title>16&#45;&gt;16</title>
<path fill="none" stroke="black" d="M801.53,-25.75C812.51,-26.49 822,-23.91 822,-18 822,-14.03 817.72,-11.56 811.57,-10.59"/>
<polygon fill="black" stroke="black" points="811.65,-7.09 801.53,-10.25 811.41,-14.09 811.65,-7.09"/>
<text text-anchor="middle" x="840.5" y="-14.3" font-family="Times,serif" font-size="14.00">0&#45;68&#45;F</text>
</g>
<!-- 18&#45;&gt;17 -->
<g id="edge51" class="edge">
<title>18&#45;&gt;17</title>
<path fill="none" stroke="black" d="M915.23,-34.62C918.76,-40.42 922.2,-47.24 924,-54 926.02,-61.6 925.79,-69.93 924.56,-77.72"/>
<polygon fill="black" stroke="black" points="921.13,-77.04 922.47,-87.55 927.97,-78.5 921.13,-77.04"/>
<text text-anchor="middle" x="928.5" y="-57.8" font-family="Times,serif" font-size="14.00">8</text>
</g>
<!-- 18&#45;&gt;18 -->
<g id="edge52" class="edge">
<title>18&#45;&gt;18</title>
<path fill="none" stroke="black" d="M928.53,-25.75C939.51,-26.49 949,-23.91 949,-18 949,-14.03 944.72,-11.56 938.57,-10.59"/>
<polygon fill="black" stroke="black" points="938.65,-7.09 928.53,-10.25 938.41,-14.09 938.65,-7.09"/>
<text text-anchor="middle" x="967.5" y="-14.3" font-family="Times,serif" font-size="14.00">0&#45;79&#45;F</text>
</g>
<!-- 20&#45;&gt;19 -->
<g id="edge55" class="edge">
<title>20&#45;&gt;19</title>
<path fill="none" stroke="black" d="M1031.1,-36.19C1030.96,-45.87 1030.46,-58.15 1029,-69 1028.64,-71.68 1028.18,-74.45 1027.66,-77.22"/>
<polygon fill="black" stroke="black" points="1024.22,-76.58 1025.58,-87.08 1031.07,-78.02 1024.22,-76.58"/>
<text text-anchor="middle" x="1033.5" y="-57.8" font-family="Times,serif" font-size="14.00">9</text>
</g>
<!-- 20&#45;&gt;20 -->
<g id="edge56" class="edge">
<title>20&#45;&gt;20</title>
<path fill="none" stroke="black" d="M1055.53,-25.75C1066.51,-26.49 1076,-23.91 1076,-18 1076,-14.03 1071.72,-11.56 1065.57,-10.59"/>
<polygon fill="black" stroke="black" points="1065.65,-7.09 1055.53,-10.25 1065.41,-14.09 1065.65,-7.09"/>
<text text-anchor="middle" x="1096" y="-14.3" font-family="Times,serif" font-size="14.00">0&#45;8A&#45;F</text>
</g>
<!-- 22&#45;&gt;21 -->
<g id="edge59" class="edge">
<title>22&#45;&gt;21</title>
<path fill="none" stroke="black" d="M1160.21,-36.2C1159.28,-46.1 1157.28,-58.6 1153,-69 1151.28,-73.19 1149.02,-77.36 1146.54,-81.32"/>
<polygon fill="black" stroke="black" points="1143.62,-79.39 1140.86,-89.62 1149.4,-83.34 1143.62,-79.39"/>
<text text-anchor="middle" x="1162" y="-57.8" font-family="Times,serif" font-size="14.00">A</text>
</g>
<!-- 22&#45;&gt;22 -->
<g id="edge60" class="edge">
<title>22&#45;&gt;22</title>
<path fill="none" stroke="black" d="M1185.53,-25.75C1196.51,-26.49 1206,-23.91 1206,-18 1206,-14.03 1201.72,-11.56 1195.57,-10.59"/>
<polygon fill="black" stroke="black" points="1195.65,-7.09 1185.53,-10.25 1195.41,-14.09 1195.65,-7.09"/>
<text text-anchor="middle" x="1226" y="-14.3" font-family="Times,serif" font-size="14.00">0&#45;9B&#45;F</text>
</g>
<!-- 24&#45;&gt;23 -->
<g id="edge63" class="edge">
<title>24&#45;&gt;23</title>
<path fill="none" stroke="black" d="M1286.05,-36.01C1282.68,-46.08 1277.62,-58.81 1271,-69 1267.63,-74.18 1263.51,-79.26 1259.23,-83.94"/>
<polygon fill="black" stroke="black" points="1256.44,-81.8 1252,-91.42 1261.47,-86.66 1256.44,-81.8"/>
<text text-anchor="middle" x="1283" y="-57.8" font-family="Times,serif" font-size="14.00">B</text>
</g>
<!-- 24&#45;&gt;24 -->
<g id="edge64" class="edge">
<title>24&#45;&gt;24</title>
<path fill="none" stroke="black" d="M1315.53,-25.75C1326.51,-26.49 1336,-23.91 1336,-18 1336,-14.03 1331.72,-11.56 1325.57,-10.59"/>
<polygon fill="black" stroke="black" points="1325.65,-7.09 1315.53,-10.25 1325.41,-14.09 1325.65,-7.09"/>
<text text-anchor="middle" x="1357.5" y="-14.3" font-family="Times,serif" font-size="14.00">0&#45;AC&#45;F</text>
</g>
<!-- 26&#45;&gt;25 -->
<g id="edge67" class="edge">
<title>26&#45;&gt;25</title>
<path fill="none" stroke="black" d="M1418.82,-35.79C1415.15,-46.03 1409.54,-59.01 1402,-69 1397.15,-75.43 1391.04,-81.47 1384.85,-86.8"/>
<polygon fill="black" stroke="black" points="1382.61,-84.11 1377.05,-93.13 1387.02,-89.55 1382.61,-84.11"/>
<text text-anchor="middle" x="1415" y="-57.8" font-family="Times,serif" font-size="14.00">C</text>
</g>
<!-- 26&#45;&gt;26 -->
<g id="edge68" class="edge">
<title>26&#45;&gt;26</title>
<path fill="none" stroke="black" d="M1448.53,-25.75C1459.51,-26.49 1469,-23.91 1469,-18 1469,-14.03 1464.72,-11.56 1458.57,-10.59"/>
<polygon fill="black" stroke="black" points="1458.65,-7.09 1448.53,-10.25 1458.41,-14.09 1458.65,-7.09"/>
<text text-anchor="middle" x="1492" y="-14.3" font-family="Times,serif" font-size="14.00">0&#45;BDEF</text>
</g>
<!-- 28&#45;&gt;27 -->
<g id="edge71" class="edge">
<title>28&#45;&gt;27</title>
<path fill="none" stroke="black" d="M1554.27,-35.99C1550.46,-46.05 1544.89,-58.78 1538,-69 1534.55,-74.12 1530.38,-79.17 1526.09,-83.85"/>
<polygon fill="black" stroke="black" points="1523.3,-81.7 1518.86,-91.32 1528.33,-86.57 1523.3,-81.7"/>
<text text-anchor="middle" x="1551" y="-57.8" font-family="Times,serif" font-size="14.00">D</text>
</g>
<!-- 28&#45;&gt;28 -->
<g id="edge72" class="edge">
<title>28&#45;&gt;28</title>
<path fill="none" stroke="black" d="M1584.53,-25.75C1595.51,-26.49 1605,-23.91 1605,-18 1605,-14.03 1600.72,-11.56 1594.57,-10.59"/>
<polygon fill="black" stroke="black" points="1594.65,-7.09 1584.53,-10.25 1594.41,-14.09 1594.65,-7.09"/>
<text text-anchor="middle" x="1623.5" y="-14.3" font-family="Times,serif" font-size="14.00">0&#45;CEF</text>
</g>
<!-- 30&#45;&gt;29 -->
<g id="edge75" class="edge">
<title>30&#45;&gt;29</title>
<path fill="none" stroke="black" d="M1680.83,-35.71C1676.86,-45.67 1671.29,-58.39 1665,-69 1662.52,-73.19 1659.65,-77.45 1656.7,-81.53"/>
<polygon fill="black" stroke="black" points="1653.84,-79.52 1650.61,-89.61 1659.42,-83.73 1653.84,-79.52"/>
<text text-anchor="middle" x="1676.5" y="-57.8" font-family="Times,serif" font-size="14.00">E</text>
</g>
<!-- 30&#45;&gt;30 -->
<g id="edge76" class="edge">
<title>30&#45;&gt;30</title>
<path fill="none" stroke="black" d="M1711.53,-25.75C1722.51,-26.49 1732,-23.91 1732,-18 1732,-14.03 1727.72,-11.56 1721.57,-10.59"/>
<polygon fill="black" stroke="black" points="1721.65,-7.09 1711.53,-10.25 1721.41,-14.09 1721.65,-7.09"/>
<text text-anchor="middle" x="1746.5" y="-14.3" font-family="Times,serif" font-size="14.00">0&#45;DF</text>
</g>
</g>
</svg>
